<?xml version="1.0" encoding="UTF-8"?>
<svg version="1.1" xmlns="http://www.w3.org/2000/svg" width="177" height="106">
<path d="M0 0 C27.72 0 55.44 0 84 0 C83.11900914 4.40495431 81.93062336 8.51086961 80.5 12.75 C80.24516846 13.51135254 79.99033691 14.27270508 79.7277832 15.05712891 C76.94058481 23.30684417 73.97021482 31.49134535 70.984375 39.67089844 C70.61183594 40.69473633 70.23929687 41.71857422 69.85546875 42.7734375 C69.52184326 43.68528809 69.18821777 44.59713867 68.84448242 45.53662109 C68.109602 47.68028789 67.5065191 49.79295492 67 52 C67.79664062 52.09152344 68.59328125 52.18304688 69.4140625 52.27734375 C73.97496164 53.1964792 78.07051142 54.82949863 82.375 56.5625 C85.22125 57.696875 88.0675 58.83125 91 60 C91.33 70.56 91.66 81.12 92 92 C89.17695312 92.10957031 86.35390625 92.21914062 83.4453125 92.33203125 C80.64489691 92.44856883 77.84467095 92.56896086 75.04443359 92.68969727 C73.13053551 92.77020326 71.21646983 92.84683901 69.30224609 92.91918945 C49.14167129 92.92421836 49.14167129 92.92421836 30 98 C29.67 98.99 29.34 99.98 29 101 C37.65479083 102.85710087 46.14101063 104.46588214 55 105 C55 105.33 55 105.66 55 106 C36.85 106 18.7 106 0 106 C0 71.02 0 36.04 0 0 Z " fill="#000000" transform="translate(0,0)"/>
<path d="M0 0 C30.03 0 60.06 0 91 0 C91 34.98 91 69.96 91 106 C71.53 106 52.06 106 32 106 C32 105.67 32 105.34 32 105 C33.2065625 104.87882812 34.413125 104.75765625 35.65625 104.6328125 C37.27086471 104.46384119 38.88544632 104.29455344 40.5 104.125 C41.29148438 104.04636719 42.08296875 103.96773438 42.8984375 103.88671875 C48.09066024 103.33344911 52.96153821 102.3751765 58 101 C57.67 100.01 57.34 99.02 57 98 C51.21535071 95.86219483 45.06336985 95.03066323 39 94 C38.34 95.98 37.68 97.96 37 100 C32.84241464 99.30183944 29.07637754 98.01940835 25.125 96.5625 C20.44882871 94.84105233 15.80043647 93.3198131 11 92 C12.65374119 83.50449527 15.36177659 75.39226543 18.0625 67.1875 C18.75334297 65.07831905 19.44297349 62.96875165 20.13121033 60.85871887 C20.75188906 58.95737703 21.37597064 57.05714702 22.00024414 55.15698242 C22.75406531 52.77660108 23.44067309 50.43105155 24 48 C22.1746875 47.6596875 22.1746875 47.6596875 20.3125 47.3125 C4.92599693 43.92599693 4.92599693 43.92599693 1 40 C-0.84529289 26.90069859 0 12.98962271 0 0 Z " fill="#000000" transform="translate(86,0)"/>
</svg>
